<svg width="498.585546875px" height="132.8px" xmlns="http://www.w3.org/2000/svg" viewBox="0.7072265625000114 8.599999999999994 498.585546875 132.8" style="background: rgb(253, 253, 253);" preserveAspectRatio="xMidYMid"><defs><filter id="editing-extrude-glow"><feFlood flood-color="#567b98" result="flood-1"></feFlood><feMorphology operator="erode" radius="1" in="SourceAlpha" result="erode"></feMorphology><feComposite operator="in" in="flood-1" in2="erode" result="comp1"></feComposite><feConvolveMatrix order="0,0" divisor="1" in="comp1" result="convolve" kernelMatrix=""></feConvolveMatrix><feOffset dx="0" dy="0" in="convolve" result="extrude"></feOffset><feComposite operator="in" in="flood-1" in2="extrude" result="comp-extrude"></feComposite><feFlood flood-color="#dce4eb" result="flood-2"></feFlood><feComposite operator="in" in="flood-2" in2="SourceAlpha" result="comp2"></feComposite><feMorphology operator="dilate" radius="1" in="comp2" result="dilate"></feMorphology><feOffset dx="0" dy="0" in="dilate" result="offset"></feOffset><feGaussianBlur in="offset" stdDeviation="5.8" result="blur"></feGaussianBlur><feComponentTransfer in="blur" result="shadow"><feFuncA type="linear" slope="0.8" intercept="-0.2"></feFuncA></feComponentTransfer><feMerge><feMergeNode in="shadow"></feMergeNode><feMergeNode in="comp-extrude"></feMergeNode><feMergeNode in="SourceGraphic"></feMergeNode></feMerge></filter></defs><g filter="url(#editing-extrude-glow)"><g transform="translate(73.44565653800964, 107.93000030517578)"><path d="M4.22-11.46L4.22-11.46L4.22-11.46Q3.01-9.47 3.01-6.62L3.01-6.62L3.01-6.62Q3.01-3.78 4.80-1.86L4.80-1.86L4.80-1.86Q6.59 0.06 8.96 0.06L8.96 0.06L8.96 0.06Q11.33 0.06 12.74-0.80L12.74-0.80L12.74-0.80Q14.14-1.66 15.10-3.39L15.10-3.39L15.10-3.39Q16.51-6.08 17.47-10.75L17.47-10.75L18.62-16.26L18.62-16.26Q7.30-16.26 4.22-11.46ZM50.05-42.30L50.05-6.85L50.05-6.85Q50.05-3.01 48.64-1.12L48.64-1.12L48.64-1.12Q47.23 0.77 43.84 0.77L43.84 0.77L43.84 0.77Q42.11 0.77 40.96 0.38L40.96 0.38L41.09-0.26L41.09-0.26Q42.50 0.06 43.65 0.06L43.65 0.06L43.65 0.06Q46.85 0.06 48-1.60L48-1.60L48-1.60Q49.15-3.26 49.15-6.85L49.15-6.85L49.15-38.59L49.15-38.59Q49.15-38.91 49.34-40.06L49.34-40.06L49.22-40.06L49.22-40.06Q49.15-39.94 49.02-39.33L49.02-39.33L49.02-39.33Q48.90-38.72 48.77-38.40L48.77-38.40L44.74-28.22L33.66-1.66L32.58-1.47L32.58-1.47Q32.77-2.30 32.77-3.58L32.77-3.58L32.77-3.58Q32.77-9.47 29.06-21.06L29.06-21.06L27.07-27.26L27.07-27.26Q24.70-34.75 24.06-37.89L24.06-37.89L17.28-5.44L17.28-5.44Q15.74 1.41 13.18 5.50L13.18 5.50L13.18 5.50Q10.11 10.24 3.97 10.24L3.97 10.24L3.97 9.47L3.97 9.47Q8.77 9.47 11.46 6.24L11.46 6.24L11.46 6.24Q14.14 3.01 15.74-2.62L15.74-2.62L16.38-3.97L16.26-4.03L16.26-4.03Q14.08 0.83 9.34 0.83L9.34 0.83L9.34 0.83Q6.21 0.83 4.16-1.28L4.16-1.28L4.16-1.28Q2.11-3.39 2.11-6.59L2.11-6.59L2.11-6.59Q2.11-17.02 18.82-17.02L18.82-17.02L23.87-41.15L21.44-41.28L21.44-41.28Q21.06-41.28 20.67-41.28L20.67-41.28L20.67-41.28Q17.34-41.28 15.20-39.65L15.20-39.65L15.20-39.65Q13.06-38.02 13.06-35.33L13.06-35.33L13.06-35.33Q13.06-34.05 13.44-33.22L13.44-33.22L12.93-32.83L12.93-32.83Q12.22-33.60 12.22-35.49L12.22-35.49L12.22-35.49Q12.22-37.38 13.57-39.07L13.57-39.07L13.57-39.07Q14.91-40.77 17.02-41.34L17.02-41.34L17.02-41.34Q17.60-41.47 18.50-41.60L18.50-41.60L18.50-41.73L17.02-41.66L17.02-41.66Q10.88-42.43 7.04-45.15L7.04-45.15L7.04-45.15Q3.20-47.87 3.20-52.99L3.20-52.99L3.97-53.06L3.97-53.06Q3.97-50.11 5.44-47.97L5.44-47.97L5.44-47.97Q6.91-45.82 9.47-44.61L9.47-44.61L9.47-44.61Q14.34-42.30 20.99-42.05L20.99-42.05L24.70-41.86L24.70-40.58L24.70-40.58Q24.70-37.89 27.97-27.52L27.97-27.52L29.95-21.31L29.95-21.31Q33.60-9.92 33.60-3.78L33.60-3.78L33.60-3.52L34.30-5.18L34.30-5.18Q34.69-6.08 34.69-8.06L34.69-8.06L34.69-8.06Q34.69-13.18 30.78-25.41L30.78-25.41L28.80-31.62L28.80-31.62Q25.79-40.58 26.05-41.79L26.05-41.79L26.88-41.79L26.88-41.79Q26.88-40.77 29.70-31.87L29.70-31.87L31.68-25.66L31.68-25.66Q35.46-13.82 35.46-8.32L35.46-8.32L35.46-8.06L43.97-28.48L43.97-28.48Q48.38-39.36 49.28-42.37L49.28-42.37L50.05-42.30ZM51.71-6.85L51.71-6.85L51.71-40.77L51.71-40.77Q51.71-44.61 53.12-46.50L53.12-46.50L53.12-46.50Q54.53-48.38 57.92-48.38L57.92-48.38L57.92-48.38Q59.65-48.38 60.80-48L60.80-48L60.67-47.36L60.67-47.36Q59.26-47.68 58.11-47.68L58.11-47.68L58.11-47.68Q54.91-47.68 53.76-46.02L53.76-46.02L53.76-46.02Q52.61-44.35 52.61-40.77L52.61-40.77L52.61-6.85L52.61-6.85Q52.61-3.26 53.76-1.60L53.76-1.60L53.76-1.60Q54.91 0.06 58.11 0.06L58.11 0.06L58.11 0.06Q59.26 0.06 60.67-0.26L60.67-0.26L60.80 0.38L60.80 0.38Q59.65 0.77 57.92 0.77L57.92 0.77L57.92 0.77Q54.53 0.77 53.12-1.12L53.12-1.12L53.12-1.12Q51.71-3.01 51.71-6.85ZM84.10-15.87L84.10-15.87L84.10-6.85L84.10-6.85Q84.10-3.01 82.69-1.12L82.69-1.12L82.69-1.12Q81.28 0.77 77.89 0.77L77.89 0.77L77.89 0.77Q76.16 0.77 75.01 0.38L75.01 0.38L75.14-0.26L75.14-0.26Q76.54 0.06 77.70 0.06L77.70 0.06L77.70 0.06Q80.90 0.06 82.05-1.60L82.05-1.60L82.05-1.60Q83.20-3.26 83.20-6.85L83.20-6.85L83.20-15.87L83.20-15.87Q83.20-16.83 80.99-21.66L80.99-21.66L80.99-21.66Q78.78-26.50 77.50-28.90L77.50-28.90L77.50-28.90Q76.22-31.30 75.58-32.48L75.58-32.48L75.58-32.48Q74.94-33.66 74.72-34.08L74.72-34.08L74.72-34.08Q74.50-34.50 73.89-35.55L73.89-35.55L73.89-35.55Q73.28-36.61 72.96-37.06L72.96-37.06L72.96-37.06Q72.64-37.50 72.03-38.34L72.03-38.34L72.03-38.34Q71.42-39.17 71.01-39.55L71.01-39.55L71.01-39.55Q70.59-39.94 69.92-40.48L69.92-40.48L69.92-40.48Q69.25-41.02 68.67-41.22L68.67-41.22L68.67-41.22Q67.14-41.86 65.92-41.86L65.92-41.86L65.92-41.86Q63.23-41.86 61.70-40.29L61.70-40.29L61.70-40.29Q60.16-38.72 60.16-36.32L60.16-36.32L60.16-36.32Q60.16-33.92 61.25-32.51L61.25-32.51L61.25-32.51Q62.34-31.10 64.19-31.10L64.19-31.10L64.19-31.10Q66.05-31.10 67.10-32.19L67.10-32.19L67.10-32.19Q68.16-33.28 68.16-35.07L68.16-35.07L68.16-35.07Q68.16-35.71 67.97-36.35L67.97-36.35L68.67-36.61L68.67-36.61Q68.99-35.84 68.99-35.07L68.99-35.07L68.99-35.07Q68.99-32.96 67.71-31.65L67.71-31.65L67.71-31.65Q66.43-30.34 64.22-30.34L64.22-30.34L64.22-30.34Q62.02-30.34 60.64-31.97L60.64-31.97L60.64-31.97Q59.26-33.60 59.26-36.32L59.26-36.32L59.26-36.32Q59.26-39.04 61.09-40.83L61.09-40.83L61.09-40.83Q62.91-42.62 65.66-42.62L65.66-42.62L65.66-42.62Q68.42-42.62 70.62-40.80L70.62-40.80L70.62-40.80Q72.83-38.98 73.79-37.50L73.79-37.50L73.79-37.50Q75.52-34.62 77.60-30.59L77.60-30.59L77.60-30.59Q79.68-26.56 81.89-21.76L81.89-21.76L81.89-21.76Q84.10-16.96 84.10-15.87ZM86.66-16.32L86.66-6.85L86.66-6.85Q86.66-3.26 87.81-1.60L87.81-1.60L87.81-1.60Q88.96 0.06 92.16 0.06L92.16 0.06L92.16 0.06Q93.31 0.06 94.72-0.26L94.72-0.26L94.85 0.38L94.85 0.38Q93.70 0.77 91.97 0.77L91.97 0.77L91.97 0.77Q88.58 0.77 87.17-1.12L87.17-1.12L87.17-1.12Q85.76-3.01 85.76-6.85L85.76-6.85L85.76-16.32L85.76-16.32Q85.76-17.54 83.36-22.88L83.36-22.88L83.36-22.88Q80.96-28.22 78.27-33.44L78.27-33.44L78.27-33.44Q75.58-38.66 74.53-39.81L74.53-39.81L74.53-39.81Q73.47-40.96 72.83-41.34L72.83-41.34L73.34-41.92L73.34-41.92Q75.07-41.02 77.25-36.99L77.25-36.99L77.25-36.99Q84.42-24.13 86.40-17.60L86.40-17.60L86.40-17.60Q90.37-25.54 92.54-31.30L92.54-31.30L92.54-31.30Q94.72-37.06 94.72-38.46L94.72-38.46L94.72-38.46Q94.72-41.73 89.60-41.73L89.60-41.73L89.60-41.73Q88.45-41.73 87.04-41.41L87.04-41.41L86.91-41.98L86.91-41.98Q88.06-42.43 89.79-42.43L89.79-42.43L89.79-42.43Q94.72-42.43 95.42-39.23L95.42-39.23L95.42-39.23Q96.58-42.43 101.25-42.43L101.25-42.43L101.25-42.43Q102.98-42.43 104.13-41.98L104.13-41.98L104-41.41L104-41.41Q102.59-41.73 100.80-41.73L100.80-41.73L100.80-41.73Q96.70-41.73 95.68-38.08L95.68-38.08L95.68-38.08Q93.06-29.06 86.66-16.32L86.66-16.32ZM124.10-6.85L124.10-6.85L124.10-40.83L122.11-40.96L122.11-40.96Q121.86-40.96 121.60-40.96L121.60-40.96L121.60-40.96Q118.53-40.96 116.35-39.49L116.35-39.49L116.35-39.49Q114.18-38.02 114.18-35.01L114.18-35.01L114.18-35.01Q114.18-33.79 114.56-32.90L114.56-32.90L114.05-32.51L114.05-32.51Q113.34-33.28 113.34-35.17L113.34-35.17L113.34-35.17Q113.34-37.06 114.69-38.78L114.69-38.78L114.69-38.78Q116.03-40.51 118.14-41.09L118.14-41.09L118.14-41.09Q118.21-41.09 119.62-41.28L119.62-41.28L119.62-41.41L118.14-41.34L118.14-41.34Q112.00-42.11 108.16-44.83L108.16-44.83L108.16-44.83Q104.32-47.55 104.32-52.67L104.32-52.67L105.09-52.74L105.09-52.74Q105.09-49.79 106.56-47.65L106.56-47.65L106.56-47.65Q108.03-45.50 110.59-44.29L110.59-44.29L110.59-44.29Q115.33-42.11 122.11-41.73L122.11-41.73L124.99-41.54L124.99-6.85L124.99-6.85Q124.99-3.01 123.58-1.12L123.58-1.12L123.58-1.12Q122.18 0.77 118.78 0.77L118.78 0.77L118.78 0.77Q117.06 0.77 115.90 0.38L115.90 0.38L116.03-0.26L116.03-0.26Q117.44 0.06 118.59 0.06L118.59 0.06L118.59 0.06Q121.79 0.06 122.94-1.60L122.94-1.60L122.94-1.60Q124.10-3.26 124.10-6.85ZM127.55-38.72L127.55-38.72L127.55-2.69L127.55-2.69Q132.93 0.06 137.38 0.06L137.38 0.06L137.38 0.06Q141.82 0.06 143.58-1.34L143.58-1.34L143.58-1.34Q145.34-2.75 145.34-6.34L145.34-6.34L145.34-6.34Q145.34-7.49 145.02-8.45L145.02-8.45L145.73-8.77L145.73-8.77Q146.18-7.68 146.18-6.34L146.18-6.34L146.18-6.34Q146.18-2.50 144.19-0.83L144.19-0.83L144.19-0.83Q142.21 0.83 138.11 0.83L138.11 0.83L138.11 0.83Q132.16 0.83 126.66-2.18L126.66-2.18L126.66-38.72L126.66-38.72Q126.66-42.56 128.06-44.45L128.06-44.45L128.06-44.45Q129.47-46.34 132.86-46.34L132.86-46.34L132.86-46.34Q134.59-46.34 135.74-45.95L135.74-45.95L135.62-45.31L135.62-45.31Q134.21-45.63 133.06-45.63L133.06-45.63L133.06-45.63Q129.86-45.63 128.70-43.97L128.70-43.97L128.70-43.97Q127.55-42.30 127.55-38.72ZM167.49-41.28L167.49-41.28Q169.60-40.70 170.94-39.01L170.94-39.01L170.94-39.01Q172.29-37.31 172.29-35.42L172.29-35.42L172.29-35.42Q172.29-33.54 171.58-32.77L171.58-32.77L171.07-33.15L171.07-33.15Q171.46-34.05 171.46-35.26L171.46-35.26L171.46-35.26Q171.46-37.95 169.31-39.58L169.31-39.58L169.31-39.58Q167.17-41.22 163.84-41.22L163.84-41.22L163.84-41.22Q163.46-41.22 163.07-41.22L163.07-41.22L155.01-40.77L155.01-21.76L162.94-21.76L162.94-21.76Q167.55-21.76 167.55-24.38L167.55-24.38L167.55-24.38Q167.55-25.09 167.23-25.73L167.23-25.73L167.87-26.05L167.87-26.05Q168.38-25.41 168.38-24.29L168.38-24.29L168.38-24.29Q168.38-23.17 167.52-22.34L167.52-22.34L167.52-22.34Q166.66-21.50 165.44-21.31L165.44-21.31L165.44-21.31Q167.94-20.48 168.45-16.58L168.45-16.58L167.68-16.38L167.68-16.38Q167.23-18.88 166.21-19.94L166.21-19.94L166.21-19.94Q165.18-20.99 162.88-20.99L162.88-20.99L155.01-20.99L155.01-2.69L155.01-2.69Q160.38 0.06 164.83 0.06L164.83 0.06L164.83 0.06Q169.28 0.06 171.04-1.34L171.04-1.34L171.04-1.34Q172.80-2.75 172.80-6.34L172.80-6.34L172.80-6.34Q172.80-7.49 172.48-8.45L172.48-8.45L173.18-8.77L173.18-8.77Q173.63-7.68 173.63-6.34L173.63-6.34L173.63-6.34Q173.63-2.50 171.65-0.83L171.65-0.83L171.65-0.83Q169.66 0.83 165.57 0.83L165.57 0.83L165.57 0.83Q159.62 0.83 154.11-2.18L154.11-2.18L154.11-41.47L163.52-41.98L163.52-41.98Q170.18-42.24 175.04-44.54L175.04-44.54L175.04-44.54Q177.60-45.76 179.07-47.90L179.07-47.90L179.07-47.90Q180.54-50.05 180.54-52.99L180.54-52.99L181.31-52.93L181.31-52.93Q181.31-47.81 177.47-45.09L177.47-45.09L177.47-45.09Q173.63-42.37 167.49-41.60L167.49-41.60L167.49-41.60Q167.04-41.60 166.02-41.66L166.02-41.66L166.02-41.54L166.02-41.54Q166.91-41.41 167.49-41.28L167.49-41.28ZM152.45-38.72L152.45-38.72L152.45-6.85L152.45-6.85Q152.45-3.01 151.04-1.12L151.04-1.12L151.04-1.12Q149.63 0.77 146.24 0.77L146.24 0.77L146.24 0.77Q144.51 0.77 143.36 0.38L143.36 0.38L143.49-0.26L143.49-0.26Q144.90 0.06 146.05 0.06L146.05 0.06L146.05 0.06Q149.25 0.06 150.40-1.60L150.40-1.60L150.40-1.60Q151.55-3.26 151.55-6.85L151.55-6.85L151.55-38.72L151.55-38.72Q151.55-42.30 150.40-43.97L150.40-43.97L150.40-43.97Q149.25-45.63 146.05-45.63L146.05-45.63L146.05-45.63Q144.90-45.63 143.49-45.31L143.49-45.31L143.36-45.95L143.36-45.95Q144.51-46.34 146.24-46.34L146.24-46.34L146.24-46.34Q149.63-46.34 151.04-44.45L151.04-44.45L151.04-44.45Q152.45-42.56 152.45-38.72ZM189.25-6.85L189.25-6.85L189.25-41.47L198.66-41.98L198.66-41.98Q205.31-42.24 210.18-44.54L210.18-44.54L210.18-44.54Q212.74-45.76 214.21-47.90L214.21-47.90L214.21-47.90Q215.68-50.05 215.68-52.99L215.68-52.99L216.45-52.93L216.45-52.93Q216.45-47.81 212.61-45.09L212.61-45.09L212.61-45.09Q208.77-42.37 202.62-41.60L202.62-41.60L202.62-41.60Q202.18-41.60 201.15-41.66L201.15-41.66L201.15-41.54L201.15-41.54Q202.05-41.41 202.62-41.28L202.62-41.28L202.62-41.28Q204.74-40.70 206.08-39.01L206.08-39.01L206.08-39.01Q207.42-37.31 207.42-35.42L207.42-35.42L207.42-35.42Q207.42-33.54 206.72-32.77L206.72-32.77L206.21-33.15L206.21-33.15Q206.59-34.05 206.59-35.26L206.59-35.26L206.59-35.26Q206.59-37.95 204.45-39.58L204.45-39.58L204.45-39.58Q202.30-41.22 198.98-41.22L198.98-41.22L198.98-41.22Q198.59-41.22 198.21-41.22L198.21-41.22L190.14-40.77L190.14-21.76L198.08-21.76L198.08-21.76Q202.69-21.76 202.69-24.38L202.69-24.38L202.69-24.38Q202.69-25.09 202.37-25.73L202.37-25.73L203.01-26.05L203.01-26.05Q203.52-25.41 203.52-24.29L203.52-24.29L203.52-24.29Q203.52-23.17 202.66-22.34L202.66-22.34L202.66-22.34Q201.79-21.50 200.58-21.31L200.58-21.31L200.58-21.31Q203.07-20.48 203.58-16.58L203.58-16.58L202.82-16.38L202.82-16.38Q202.37-18.88 201.34-19.94L201.34-19.94L201.34-19.94Q200.32-20.99 198.02-20.99L198.02-20.99L190.14-20.99L190.14-6.85L190.14-6.85Q190.14-3.26 191.30-1.60L191.30-1.60L191.30-1.60Q192.45 0.06 195.65 0.06L195.65 0.06L195.65 0.06Q196.80 0.06 198.21-0.26L198.21-0.26L198.34 0.38L198.34 0.38Q197.18 0.77 195.46 0.77L195.46 0.77L195.46 0.77Q192.06 0.77 190.66-1.12L190.66-1.12L190.66-1.12Q189.25-3.01 189.25-6.85ZM187.58-38.72L187.58-38.72L187.58-6.85L187.58-6.85Q187.58-3.01 186.18-1.12L186.18-1.12L186.18-1.12Q184.77 0.77 181.38 0.77L181.38 0.77L181.38 0.77Q179.65 0.77 178.50 0.38L178.50 0.38L178.62-0.26L178.62-0.26Q180.03 0.06 181.18 0.06L181.18 0.06L181.18 0.06Q184.38 0.06 185.54-1.60L185.54-1.60L185.54-1.60Q186.69-3.26 186.69-6.85L186.69-6.85L186.69-38.72L186.69-38.72Q186.69-42.30 185.54-43.97L185.54-43.97L185.54-43.97Q184.38-45.63 181.18-45.63L181.18-45.63L181.18-45.63Q180.03-45.63 178.62-45.31L178.62-45.31L178.50-45.95L178.50-45.95Q179.65-46.34 181.38-46.34L181.38-46.34L181.38-46.34Q184.77-46.34 186.18-44.45L186.18-44.45L186.18-44.45Q187.58-42.56 187.58-38.72ZM226.11-6.91L226.11-6.91L226.11-41.60L226.11-41.60Q226.75-41.66 228.42-41.73L228.42-41.73L228.42-41.73Q230.08-41.79 233.18-41.92L233.18-41.92L233.18-41.92Q236.29-42.05 239.10-42.66L239.10-42.66L239.10-42.66Q241.92-43.26 244.48-44.48L244.48-44.48L244.48-44.48Q247.04-45.70 248.51-47.84L248.51-47.84L248.51-47.84Q249.98-49.98 249.98-52.93L249.98-52.93L250.75-52.86L250.75-52.86Q250.75-47.74 246.91-45.02L246.91-45.02L246.91-45.02Q243.07-42.30 236.93-41.54L236.93-41.54L236.93-41.54Q236.48-41.54 235.46-41.60L235.46-41.60L235.46-41.47L235.46-41.47Q236.35-41.34 236.93-41.22L236.93-41.22L236.93-41.22Q239.04-40.64 240.38-38.94L240.38-38.94L240.38-38.94Q241.73-37.25 241.73-35.36L241.73-35.36L241.73-35.36Q241.73-33.47 241.02-32.70L241.02-32.70L240.51-33.09L240.51-33.09Q240.90-33.92 240.90-35.20L240.90-35.20L240.90-35.20Q240.90-37.89 238.75-39.52L238.75-39.52L238.75-39.52Q236.61-41.15 233.28-41.15L233.28-41.15L233.28-41.15Q232.90-41.15 232.51-41.15L232.51-41.15L227.01-40.90L227.01-6.91L227.01-6.91Q227.01-3.33 228.16-1.66L228.16-1.66L228.16-1.66Q229.31 0 232.51 0L232.51 0L232.51 0Q233.66 0 235.07-0.32L235.07-0.32L235.20 0.32L235.20 0.32Q234.05 0.70 232.32 0.70L232.32 0.70L232.32 0.70Q228.93 0.70 227.52-1.18L227.52-1.18L227.52-1.18Q226.11-3.07 226.11-6.91ZM223.55-6.91L223.55-40.90L215.81-41.28L215.81-41.28Q208.38-41.28 208.38-35.52L208.38-35.52L208.38-35.52Q208.38-33.41 209.47-32L209.47-32L209.47-32Q210.56-30.59 212.42-30.59L212.42-30.59L212.42-30.59Q214.27-30.59 215.33-31.68L215.33-31.68L215.33-31.68Q216.38-32.77 216.38-34.56L216.38-34.56L216.38-34.56Q216.38-35.20 216.19-35.84L216.19-35.84L216.90-36.10L216.90-36.10Q217.22-35.33 217.22-34.56L217.22-34.56L217.22-34.56Q217.22-32.45 215.94-31.14L215.94-31.14L215.94-31.14Q214.66-29.82 212.45-29.82L212.45-29.82L212.45-29.82Q210.24-29.82 208.86-31.46L208.86-31.46L208.86-31.46Q207.49-33.09 207.49-35.58L207.49-35.58L207.49-35.58Q207.49-42.05 216.06-42.05L216.06-42.05L216.06-42.05Q219.52-42.05 224.45-41.60L224.45-41.60L224.45-6.91L224.45-6.91Q224.45-3.07 223.04-1.18L223.04-1.18L223.04-1.18Q221.63 0.70 218.24 0.70L218.24 0.70L218.24 0.70Q216.51 0.70 215.36 0.32L215.36 0.32L215.49-0.32L215.49-0.32Q216.90 0 218.05 0L218.05 0L218.05 0Q221.25 0 222.40-1.66L222.40-1.66L222.40-1.66Q223.55-3.33 223.55-6.91L223.55-6.91ZM263.55-6.85L263.55-6.85L263.55-40.83L261.57-40.96L261.57-40.96Q261.31-40.96 261.06-40.96L261.06-40.96L261.06-40.96Q257.98-40.96 255.81-39.49L255.81-39.49L255.81-39.49Q253.63-38.02 253.63-35.01L253.63-35.01L253.63-35.01Q253.63-33.79 254.02-32.90L254.02-32.90L253.50-32.51L253.50-32.51Q252.80-33.28 252.80-35.17L252.80-35.17L252.80-35.17Q252.80-37.06 254.14-38.78L254.14-38.78L254.14-38.78Q255.49-40.51 257.60-41.09L257.60-41.09L257.60-41.09Q257.66-41.09 259.07-41.28L259.07-41.28L259.07-41.41L257.60-41.34L257.60-41.34Q251.46-42.11 247.62-44.83L247.62-44.83L247.62-44.83Q243.78-47.55 243.78-52.67L243.78-52.67L244.54-52.74L244.54-52.74Q244.54-49.79 246.02-47.65L246.02-47.65L246.02-47.65Q247.49-45.50 250.05-44.29L250.05-44.29L250.05-44.29Q254.78-42.11 261.57-41.73L261.57-41.73L264.45-41.54L264.45-6.85L264.45-6.85Q264.45-3.01 263.04-1.12L263.04-1.12L263.04-1.12Q261.63 0.77 258.24 0.77L258.24 0.77L258.24 0.77Q256.51 0.77 255.36 0.38L255.36 0.38L255.49-0.26L255.49-0.26Q256.90 0.06 258.05 0.06L258.05 0.06L258.05 0.06Q261.25 0.06 262.40-1.60L262.40-1.60L262.40-1.60Q263.55-3.26 263.55-6.85ZM267.01-38.72L267.01-38.72L267.01-2.69L267.01-2.69Q272.38 0.06 276.83 0.06L276.83 0.06L276.83 0.06Q281.28 0.06 283.04-1.34L283.04-1.34L283.04-1.34Q284.80-2.75 284.80-6.34L284.80-6.34L284.80-6.34Q284.80-7.49 284.48-8.45L284.48-8.45L285.18-8.77L285.18-8.77Q285.63-7.68 285.63-6.34L285.63-6.34L285.63-6.34Q285.63-2.50 283.65-0.83L283.65-0.83L283.65-0.83Q281.66 0.83 277.57 0.83L277.57 0.83L277.57 0.83Q271.62 0.83 266.11-2.18L266.11-2.18L266.11-38.72L266.11-38.72Q266.11-42.56 267.52-44.45L267.52-44.45L267.52-44.45Q268.93-46.34 272.32-46.34L272.32-46.34L272.32-46.34Q274.05-46.34 275.20-45.95L275.20-45.95L275.07-45.31L275.07-45.31Q273.66-45.63 272.51-45.63L272.51-45.63L272.51-45.63Q269.31-45.63 268.16-43.97L268.16-43.97L268.16-43.97Q267.01-42.30 267.01-38.72ZM306.94-41.28L306.94-41.28Q309.06-40.70 310.40-39.01L310.40-39.01L310.40-39.01Q311.74-37.31 311.74-35.42L311.74-35.42L311.74-35.42Q311.74-33.54 311.04-32.77L311.04-32.77L310.53-33.15L310.53-33.15Q310.91-34.05 310.91-35.26L310.91-35.26L310.91-35.26Q310.91-37.95 308.77-39.58L308.77-39.58L308.77-39.58Q306.62-41.22 303.30-41.22L303.30-41.22L303.30-41.22Q302.91-41.22 302.53-41.22L302.53-41.22L294.46-40.77L294.46-21.76L302.40-21.76L302.40-21.76Q307.01-21.76 307.01-24.38L307.01-24.38L307.01-24.38Q307.01-25.09 306.69-25.73L306.69-25.73L307.33-26.05L307.33-26.05Q307.84-25.41 307.84-24.29L307.84-24.29L307.84-24.29Q307.84-23.17 306.98-22.34L306.98-22.34L306.98-22.34Q306.11-21.50 304.90-21.31L304.90-21.31L304.90-21.31Q307.39-20.48 307.90-16.58L307.90-16.58L307.14-16.38L307.14-16.38Q306.69-18.88 305.66-19.94L305.66-19.94L305.66-19.94Q304.64-20.99 302.34-20.99L302.34-20.99L294.46-20.99L294.46-2.69L294.46-2.69Q299.84 0.06 304.29 0.06L304.29 0.06L304.29 0.06Q308.74 0.06 310.50-1.34L310.50-1.34L310.50-1.34Q312.26-2.75 312.26-6.34L312.26-6.34L312.26-6.34Q312.26-7.49 311.94-8.45L311.94-8.45L312.64-8.77L312.64-8.77Q313.09-7.68 313.09-6.34L313.09-6.34L313.09-6.34Q313.09-2.50 311.10-0.83L311.10-0.83L311.10-0.83Q309.12 0.83 305.02 0.83L305.02 0.83L305.02 0.83Q299.07 0.83 293.57-2.18L293.57-2.18L293.57-41.47L302.98-41.98L302.98-41.98Q309.63-42.24 314.50-44.54L314.50-44.54L314.50-44.54Q317.06-45.76 318.53-47.90L318.53-47.90L318.53-47.90Q320-50.05 320-52.99L320-52.99L320.77-52.93L320.77-52.93Q320.77-47.81 316.93-45.09L316.93-45.09L316.93-45.09Q313.09-42.37 306.94-41.60L306.94-41.60L306.94-41.60Q306.50-41.60 305.47-41.66L305.47-41.66L305.47-41.54L305.47-41.54Q306.37-41.41 306.94-41.28L306.94-41.28ZM291.90-38.72L291.90-38.72L291.90-6.85L291.90-6.85Q291.90-3.01 290.50-1.12L290.50-1.12L290.50-1.12Q289.09 0.77 285.70 0.77L285.70 0.77L285.70 0.77Q283.97 0.77 282.82 0.38L282.82 0.38L282.94-0.26L282.94-0.26Q284.35 0.06 285.50 0.06L285.50 0.06L285.50 0.06Q288.70 0.06 289.86-1.60L289.86-1.60L289.86-1.60Q291.01-3.26 291.01-6.85L291.01-6.85L291.01-38.72L291.01-38.72Q291.01-42.30 289.86-43.97L289.86-43.97L289.86-43.97Q288.70-45.63 285.50-45.63L285.50-45.63L285.50-45.63Q284.35-45.63 282.94-45.31L282.94-45.31L282.82-45.95L282.82-45.95Q283.97-46.34 285.70-46.34L285.70-46.34L285.70-46.34Q289.09-46.34 290.50-44.45L290.50-44.45L290.50-44.45Q291.90-42.56 291.90-38.72ZM319.42-18.56L319.42-18.56L319.42-18.56Q319.42-25.73 323.26-32.77L323.26-32.77L323.26-32.77Q327.10-39.81 333.38-42.62L333.38-42.62L333.70-42.62L333.70-42.62Q340.93-42.62 342.98-41.02L342.98-41.02L342.98-41.02Q345.22-39.36 345.22-36.38L345.22-36.38L345.22-36.38Q345.22-33.41 343.84-31.78L343.84-31.78L343.84-31.78Q342.46-30.14 340.26-30.14L340.26-30.14L340.26-30.14Q338.05-30.14 336.77-31.46L336.77-31.46L336.77-31.46Q335.49-32.77 335.49-34.88L335.49-34.88L335.49-34.88Q335.49-35.65 335.81-36.42L335.81-36.42L336.51-36.16L336.51-36.16Q336.32-35.46 336.32-34.88L336.32-34.88L336.32-34.88Q336.32-33.09 337.38-32L337.38-32L337.38-32Q338.43-30.91 340.29-30.91L340.29-30.91L340.29-30.91Q342.14-30.91 343.23-32.32L343.23-32.32L343.23-32.32Q344.32-33.73 344.32-35.62L344.32-35.62L344.32-35.62Q344.32-37.50 343.74-38.69L343.74-38.69L343.74-38.69Q343.17-39.87 342.37-40.48L342.37-40.48L342.37-40.48Q341.57-41.09 340.03-41.41L340.03-41.41L340.03-41.41Q337.86-41.86 333.89-41.86L333.89-41.86L333.57-41.86L333.57-41.86Q327.62-39.04 323.97-32.32L323.97-32.32L323.97-32.32Q320.32-25.60 320.32-18.56L320.32-18.56L320.32-18.56Q320.32-1.09 335.42 0.06L335.42 0.06L335.42 0.06Q337.86-0.26 339.78-1.15L339.78-1.15L339.78-13.50L339.78-13.50Q339.78-17.09 338.62-18.75L338.62-18.75L338.62-18.75Q337.47-20.42 334.27-20.42L334.27-20.42L334.27-20.42Q333.12-20.42 331.71-20.10L331.71-20.10L331.58-20.74L331.58-20.74Q332.74-21.12 334.46-21.12L334.46-21.12L334.46-21.12Q337.86-21.12 339.26-19.23L339.26-19.23L339.26-19.23Q340.67-17.34 340.67-13.50L340.67-13.50L340.67-0.70L340.67-0.70Q337.98 0.58 335.42 0.90L335.42 0.90L335.42 0.90Q319.42-0.38 319.42-18.56ZM343.23-13.50L343.23-13.50L343.23-2.24L343.23-2.24Q343.23 3.07 340.93 7.01L340.93 7.01L340.93 7.01Q338.62 10.94 334.02 12.80L334.02 12.80L334.02 12.80Q329.28 12.80 325.25 11.46L325.25 11.46L325.44 10.69L325.44 10.69Q329.28 12.03 333.76 12.03L333.76 12.03L333.76 12.03Q342.34 8.58 342.34-2.24L342.34-2.24L342.34-13.50L342.34-13.50Q342.34-17.34 343.74-19.23L343.74-19.23L343.74-19.23Q345.15-21.12 348.54-21.12L348.54-21.12L348.54-21.12Q350.27-21.12 351.42-20.74L351.42-20.74L351.30-20.10L351.30-20.10Q349.89-20.42 348.74-20.42L348.74-20.42L348.74-20.42Q345.54-20.42 344.38-18.75L344.38-18.75L344.38-18.75Q343.23-17.09 343.23-13.50Z" fill="#85a2b6"></path></g></g><style>text {
  font-size: 64px;
  font-family: Arial Black;
  dominant-baseline: central;
  text-anchor: middle;
}</style></svg>